<svg xmlns="http://www.w3.org/2000/svg" version="1.1" xmlns:xlink="http://www.w3.org/1999/xlink" xmlns:svgjs="http://svgjs.dev/svgjs" width="1440" height="560" preserveAspectRatio="none" viewBox="0 0 1440 560"><g mask="url(&quot;#SvgjsMask1027&quot;)" fill="none"><rect width="1440" height="560" x="0" y="0" fill="url(&quot;#SvgjsLinearGradient1028&quot;)"></rect><path d="M718 353L717 759" stroke-width="6" stroke="url(&quot;#SvgjsLinearGradient1029&quot;)" stroke-linecap="round" class="Up"></path><path d="M933 36L932 446" stroke-width="8" stroke="url(&quot;#SvgjsLinearGradient1030&quot;)" stroke-linecap="round" class="Down"></path><path d="M1368 292L1367 -9" stroke-width="6" stroke="url(&quot;#SvgjsLinearGradient1030&quot;)" stroke-linecap="round" class="Down"></path><path d="M722 89L721 -118" stroke-width="6" stroke="url(&quot;#SvgjsLinearGradient1029&quot;)" stroke-linecap="round" class="Up"></path><path d="M14 353L13 571" stroke-width="6" stroke="url(&quot;#SvgjsLinearGradient1030&quot;)" stroke-linecap="round" class="Down"></path><path d="M627 204L626 352" stroke-width="8" stroke="url(&quot;#SvgjsLinearGradient1030&quot;)" stroke-linecap="round" class="Down"></path><path d="M1209 278L1208 513" stroke-width="8" stroke="url(&quot;#SvgjsLinearGradient1030&quot;)" stroke-linecap="round" class="Down"></path><path d="M1432 503L1431 705" stroke-width="8" stroke="url(&quot;#SvgjsLinearGradient1030&quot;)" stroke-linecap="round" class="Down"></path><path d="M363 327L362 717" stroke-width="10" stroke="url(&quot;#SvgjsLinearGradient1029&quot;)" stroke-linecap="round" class="Up"></path><path d="M1122 45L1121 -264" stroke-width="6" stroke="url(&quot;#SvgjsLinearGradient1029&quot;)" stroke-linecap="round" class="Up"></path><path d="M156 409L155 13" stroke-width="8" stroke="url(&quot;#SvgjsLinearGradient1029&quot;)" stroke-linecap="round" class="Up"></path><path d="M236 261L235 116" stroke-width="8" stroke="url(&quot;#SvgjsLinearGradient1030&quot;)" stroke-linecap="round" class="Down"></path><path d="M363 461L362 136" stroke-width="6" stroke="url(&quot;#SvgjsLinearGradient1029&quot;)" stroke-linecap="round" class="Up"></path><path d="M388 163L387 -124" stroke-width="6" stroke="url(&quot;#SvgjsLinearGradient1029&quot;)" stroke-linecap="round" class="Up"></path><path d="M1142 255L1141 570" stroke-width="8" stroke="url(&quot;#SvgjsLinearGradient1029&quot;)" stroke-linecap="round" class="Up"></path><path d="M585 527L584 326" stroke-width="8" stroke="url(&quot;#SvgjsLinearGradient1029&quot;)" stroke-linecap="round" class="Up"></path><path d="M953 308L952 494" stroke-width="6" stroke="url(&quot;#SvgjsLinearGradient1029&quot;)" stroke-linecap="round" class="Up"></path><path d="M908 94L907 -185" stroke-width="10" stroke="url(&quot;#SvgjsLinearGradient1029&quot;)" stroke-linecap="round" class="Up"></path><path d="M975 412L974 590" stroke-width="10" stroke="url(&quot;#SvgjsLinearGradient1030&quot;)" stroke-linecap="round" class="Down"></path><path d="M348 484L347 644" stroke-width="8" stroke="url(&quot;#SvgjsLinearGradient1030&quot;)" stroke-linecap="round" class="Down"></path><path d="M872 281L871 81" stroke-width="10" stroke="url(&quot;#SvgjsLinearGradient1030&quot;)" stroke-linecap="round" class="Down"></path><path d="M617 12L616 335" stroke-width="6" stroke="url(&quot;#SvgjsLinearGradient1029&quot;)" stroke-linecap="round" class="Up"></path><path d="M530 339L529 574" stroke-width="8" stroke="url(&quot;#SvgjsLinearGradient1029&quot;)" stroke-linecap="round" class="Up"></path><path d="M195 480L194 783" stroke-width="10" stroke="url(&quot;#SvgjsLinearGradient1030&quot;)" stroke-linecap="round" class="Down"></path><path d="M68 198L67 557" stroke-width="8" stroke="url(&quot;#SvgjsLinearGradient1029&quot;)" stroke-linecap="round" class="Up"></path><path d="M1121 168L1120 505" stroke-width="10" stroke="url(&quot;#SvgjsLinearGradient1030&quot;)" stroke-linecap="round" class="Down"></path><path d="M722 439L721 279" stroke-width="8" stroke="url(&quot;#SvgjsLinearGradient1030&quot;)" stroke-linecap="round" class="Down"></path><path d="M101 148L100 408" stroke-width="8" stroke="url(&quot;#SvgjsLinearGradient1029&quot;)" stroke-linecap="round" class="Up"></path><path d="M392 169L391 403" stroke-width="8" stroke="url(&quot;#SvgjsLinearGradient1030&quot;)" stroke-linecap="round" class="Down"></path><path d="M1058 17L1057 -264" stroke-width="8" stroke="url(&quot;#SvgjsLinearGradient1029&quot;)" stroke-linecap="round" class="Up"></path><path d="M40 221L39 -8" stroke-width="8" stroke="url(&quot;#SvgjsLinearGradient1029&quot;)" stroke-linecap="round" class="Up"></path><path d="M895 238L894 630" stroke-width="10" stroke="url(&quot;#SvgjsLinearGradient1029&quot;)" stroke-linecap="round" class="Up"></path><path d="M761 557L760 850" stroke-width="8" stroke="url(&quot;#SvgjsLinearGradient1030&quot;)" stroke-linecap="round" class="Down"></path><path d="M899 337L898 174" stroke-width="8" stroke="url(&quot;#SvgjsLinearGradient1029&quot;)" stroke-linecap="round" class="Up"></path><path d="M721 155L720 -46" stroke-width="6" stroke="url(&quot;#SvgjsLinearGradient1030&quot;)" stroke-linecap="round" class="Down"></path><path d="M666 414L665 74" stroke-width="6" stroke="url(&quot;#SvgjsLinearGradient1030&quot;)" stroke-linecap="round" class="Down"></path></g><defs><mask id="SvgjsMask1027"><rect width="1440" height="560" fill="#ffffff"></rect></mask><linearGradient x1="15.28%" y1="-39.29%" x2="84.72%" y2="139.29%" gradientUnits="userSpaceOnUse" id="SvgjsLinearGradient1028"><stop stop-color="#0e2a47" offset="0"></stop><stop stop-color="rgba(0, 152, 158, 1)" offset="1"></stop></linearGradient><linearGradient x1="0%" y1="100%" x2="0%" y2="0%" id="SvgjsLinearGradient1029"><stop stop-color="rgba(28, 83, 142, 0)" offset="0"></stop><stop stop-color="#1c538e" offset="1"></stop></linearGradient><linearGradient x1="0%" y1="0%" x2="0%" y2="100%" id="SvgjsLinearGradient1030"><stop stop-color="rgba(28, 83, 142, 0)" offset="0"></stop><stop stop-color="#1c538e" offset="1"></stop></linearGradient></defs></svg>